<svg xmlns="http://www.w3.org/2000/svg" viewBox="0 0 24 24" fill="none" stroke="currentColor" stroke-width="1.5" stroke-linecap="round" stroke-linejoin="round">
  <path d="M12 2a5 5 0 0 1 4.5 2.8A4 4 0 0 1 20 8.5a4 4 0 0 1-1.5 3.1A4.5 4.5 0 0 1 17 16a4 4 0 0 1-2.5 3.7A3.5 3.5 0 0 1 12 22"/>
  <path d="M12 2a5 5 0 0 0-4.5 2.8A4 4 0 0 0 4 8.5a4 4 0 0 0 1.5 3.1A4.5 4.5 0 0 0 7 16a4 4 0 0 0 2.5 3.7A3.5 3.5 0 0 0 12 22"/>
  <path d="M12 2v20"/>
  <path d="M8 6.5c1 .5 2.5.5 4 0"/>
  <path d="M8 11c1.5.5 3.5.5 5 0"/>
  <path d="M7.5 15.5c1.5.5 4 .5 5.5 0"/>
</svg>
